<svg width="32" height="32" viewBox="0 0 32 32" fill="none" xmlns="http://www.w3.org/2000/svg">
<path fill-rule="evenodd" clip-rule="evenodd" d="M16.9946 4.50237C17.3111 4.1807 17.7402 4 18.1877 4C18.6352 4 19.0643 4.1807 19.3808 4.50237L29.5059 14.7973C29.8223 15.119 30 15.5554 30 16.0104C30 16.4653 29.8223 16.9017 29.5059 17.2234L19.3808 27.5183C19.0625 27.8309 18.6362 28.0038 18.1938 27.9999C17.7513 27.996 17.3281 27.8156 17.0152 27.4974C16.7023 27.1793 16.5248 26.749 16.521 26.2991C16.5171 25.8492 16.6872 25.4158 16.9946 25.0922L24.2392 17.7262H4.68752C4.23996 17.7262 3.81074 17.5454 3.49426 17.2236C3.17779 16.9018 3 16.4654 3 16.0104C3 15.5553 3.17779 15.1189 3.49426 14.7971C3.81074 14.4753 4.23996 14.2945 4.68752 14.2945H24.2392L16.9946 6.92853C16.6783 6.60677 16.5005 6.17042 16.5005 5.71545C16.5005 5.26048 16.6783 4.82413 16.9946 4.50237Z" fill="#E7742E"/>
</svg>
