<svg width="659" height="120" viewBox="0 0 659 120" fill="none" xmlns="http://www.w3.org/2000/svg">
<g clip-path="url(#clip0_73_2617)">
<path d="M547.1 -3.01922C548.473 -35.1748 523.796 -65.1703 500.332 -57.5676C476.868 -49.965 457.99 -27.3392 455.649 -5.35303C453.307 16.6331 492.754 4.24159 510.397 11.9002C528.088 19.6667 546.416 12.1531 547.1 -3.01922Z" stroke="#5B5B5B" stroke-miterlimit="10"/>
<path d="M449.5 -61.5556C427.284 -52.3103 428.82 -29.9917 414.506 -11.3421C406.14 -0.380267 407.192 5.61249 409.554 11.2807C413.405 20.2922 430.851 26.0939 437.616 27.8633C458.19 33.435 491.191 30.6313 508.592 42.1388C539.422 62.3994 558.935 23.8599 566.723 3.98022C576.741 -21.415 570.745 -40.3263 554.825 -50.6841C519.117 -73.5545 519.077 -90.3362 449.5 -61.5556Z" stroke="#5B5B5B" stroke-miterlimit="10"/>
<path d="M518.907 -90.1835C506.955 -105.085 476.641 -88.4778 424.946 -79.7216C385.847 -73.0738 395.86 -29.9548 371.462 -0.42413C346.363 30.0666 365.205 34.3823 392.546 42.951C423.138 52.6656 481.154 49.781 509.942 72.0952C553.217 105.591 575.418 35.2949 589.423 10.651C609.673 -24.9404 598.052 -44.5271 577.96 -58.5275C557.272 -72.7811 527.299 -79.6597 518.907 -90.1835Z" stroke="#5B5B5B" stroke-miterlimit="10"/>
<path d="M530.863 -107.633C519.04 -132.738 475.604 -108.338 401.108 -98.5306C345.823 -91.3071 363.328 -30.5757 328.716 10.0123C292.023 52.8243 319.747 59.5588 363.023 66.3776C407.348 73.3776 477.195 72.0002 512.039 101.261C567.838 148.187 593.155 46.0683 613.405 16.4169C644.614 -29.2746 628.86 -51.5914 602.549 -67.1311C576.141 -82.8875 538.743 -91.025 530.863 -107.633Z" stroke="#5B5B5B" stroke-miterlimit="10"/>
<path d="M637.214 21.3801C679.284 -33.9642 659.314 -59.228 627.141 -76.3425C594.835 -93.397 550.278 -102.41 542.946 -125.409C531.596 -160.333 474.599 -128.358 377.653 -117.539C306.258 -109.557 331.292 -31.5627 286.49 19.8228C238.692 75.0003 275.307 84.3151 333.882 88.8979C392.592 93.4208 473.445 93.2596 514.213 129.317C582.191 189.485 610.943 55.9763 637.214 21.3801Z" stroke="#5B5B5B" stroke-miterlimit="10"/>
<path d="M346.831 -128.479C275.82 -108.522 278.674 -35.0443 236.962 19.5411C195.163 74.2945 223.11 91.3879 273.787 109.503C302.378 119.703 347.873 114.215 392.185 114.048C441.174 113.871 483.467 123.67 507.224 163.616C553.699 241.897 635.86 71.8844 659.089 27.9895C691.64 -33.3985 668.683 -63.2074 633.652 -85.6971C598.486 -108.127 552.805 -122.636 544.61 -152.281C532.466 -196.231 452.154 -158.012 346.831 -128.479Z" stroke="#5B5B5B" stroke-miterlimit="10"/>
<path d="M317.158 -139.471C246.493 -108.656 226.973 -38.7052 188.626 19.036C152.596 73.2846 171.236 101.379 215.031 129.801C245.442 149.547 305.204 136.279 363.958 131.62C425.838 126.734 479.016 134.918 501.426 197.21C533.857 287.808 662.561 87.65 682.219 33.9559C706.674 -32.8826 679.461 -67.9104 641.496 -95.5606C603.531 -123.211 556.814 -143.338 547.907 -179.651C534.687 -232.177 431.328 -189.267 317.158 -139.471Z" stroke="#5B5B5B" stroke-miterlimit="10"/>
<path d="M291.117 -147.085C220.503 -106.064 178.547 -39.0806 143.609 21.9286C112.929 75.4737 121.308 116.031 159.422 153.451C190.32 183.724 265.729 161.804 338.919 152.657C413.601 143.234 480.632 148.873 498.863 234.383C520.696 336.678 693.439 106.96 708.575 43.5008C725.892 -28.8285 693.336 -68.9819 652.569 -101.854C611.755 -134.834 563.913 -160.411 554.292 -203.395C540.531 -264.736 413.334 -218.205 291.117 -147.085Z" stroke="#5B5B5B" stroke-miterlimit="10"/>
</g>
<defs>
<clipPath id="clip0_73_2617">
<rect width="656" height="539" fill="white" transform="translate(0 -53) rotate(-24)"/>
</clipPath>
</defs>
</svg>
